<svg width="17" height="21" viewBox="0 0 17 21" fill="none" xmlns="http://www.w3.org/2000/svg">
<path d="M8.5 12.5C10.706 12.5 12.5 10.706 12.5 8.5C12.5 6.294 10.706 4.5 8.5 4.5C6.294 4.5 4.5 6.294 4.5 8.5C4.5 10.706 6.294 12.5 8.5 12.5ZM8.5 6.5C9.603 6.5 10.5 7.397 10.5 8.5C10.5 9.603 9.603 10.5 8.5 10.5C7.397 10.5 6.5 9.603 6.5 8.5C6.5 7.397 7.397 6.5 8.5 6.5Z" fill="#B0B0B0"/>
<path d="M7.92009 20.314C8.08934 20.4349 8.29211 20.4998 8.50009 20.4998C8.70806 20.4998 8.91084 20.4349 9.08009 20.314C9.38409 20.099 16.5291 14.94 16.5001 8.5C16.5001 4.089 12.9111 0.5 8.50009 0.5C4.08909 0.5 0.500088 4.089 0.500088 8.495C0.471088 14.94 7.61609 20.099 7.92009 20.314ZM8.50009 2.5C11.8091 2.5 14.5001 5.191 14.5001 8.505C14.5211 12.943 10.1121 16.928 8.50009 18.235C6.88909 16.927 2.47909 12.941 2.50009 8.5C2.50009 5.191 5.19109 2.5 8.50009 2.5Z" fill="#B0B0B0"/>
</svg>
