<svg width="30" height="29" viewBox="0 0 30 29" fill="none" xmlns="http://www.w3.org/2000/svg">
<path d="M13.2979 2.49968C14.5544 2.01638 15.9456 2.01638 17.2021 2.49968L26.1957 5.95793C27.2451 6.36212 27.9375 7.37168 27.9375 8.49543V20.5051C27.9376 21.0545 27.7712 21.591 27.4602 22.044C27.1493 22.497 26.7084 22.8451 26.1957 23.0426L17.2021 26.5026C15.9456 26.9859 14.5544 26.9859 13.2979 26.5026L4.30613 23.0426C3.79306 22.8454 3.35179 22.4974 3.04051 22.0444C2.72924 21.5914 2.56257 21.0547 2.5625 20.5051V8.49543C2.56257 7.9458 2.72924 7.40909 3.04051 6.95609C3.35179 6.50309 3.79306 6.15507 4.30613 5.95793L13.2979 2.49968ZM16.5514 4.19075C15.7137 3.86854 14.7863 3.86854 13.9486 4.19075L11.4401 5.15681L21.572 8.99206L25.1027 7.48043L16.5514 4.19075ZM26.125 9.012L16.1562 13.2859V24.9366C16.2904 24.9022 16.4209 24.8605 16.5514 24.8097L25.545 21.3515C25.7159 21.2856 25.8628 21.1694 25.9663 21.0183C26.0699 20.8672 26.1252 20.6882 26.125 20.5051V9.01381V9.012ZM14.3438 24.9366V13.2859L4.375 9.01381V20.5051C4.37481 20.6882 4.43013 20.8672 4.53367 21.0183C4.63721 21.1694 4.78411 21.2856 4.955 21.3515L13.9486 24.8097C14.0791 24.8605 14.2096 24.9022 14.3438 24.9366ZM5.39725 7.48043L15.25 11.7036L19.1722 10.0216L8.90081 6.13193L5.39725 7.48043Z" fill="#B0B0B0"/>
</svg>
