<svg width="34" height="34" viewBox="0 0 34 34" fill="none" xmlns="http://www.w3.org/2000/svg">
<path d="M30.6431 23.3053H10.8707L11.8635 21.2832L28.3588 21.2533C28.9166 21.2533 29.3947 20.8549 29.4943 20.3037L31.7787 7.51719C31.8385 7.18184 31.7488 6.83652 31.5297 6.57422C31.4214 6.44513 31.2863 6.34114 31.1338 6.26947C30.9812 6.1978 30.815 6.16017 30.6465 6.15918L9.66209 6.08945L9.48279 5.24609C9.3699 4.7082 8.88514 4.31641 8.33397 4.31641H3.20408C2.89323 4.31641 2.59511 4.43989 2.3753 4.6597C2.1555 4.8795 2.03201 5.17762 2.03201 5.48848C2.03201 5.79933 2.1555 6.09745 2.3753 6.31726C2.59511 6.53706 2.89323 6.66055 3.20408 6.66055H7.38436L8.16795 10.3859L10.0971 19.726L7.61346 23.7801C7.48448 23.9542 7.4068 24.1609 7.38919 24.3768C7.37159 24.5927 7.41477 24.8093 7.51385 25.002C7.71307 25.3971 8.11483 25.6461 8.55975 25.6461H10.6449C10.2004 26.2365 9.96027 26.9557 9.96092 27.6947C9.96092 29.574 11.4883 31.1014 13.3676 31.1014C15.2469 31.1014 16.7742 29.574 16.7742 27.6947C16.7742 26.9543 16.5285 26.2338 16.0902 25.6461H21.4392C20.9947 26.2365 20.7546 26.9557 20.7553 27.6947C20.7553 29.574 22.2826 31.1014 24.1619 31.1014C26.0412 31.1014 27.5685 29.574 27.5685 27.6947C27.5685 26.9543 27.3228 26.2338 26.8846 25.6461H30.6465C31.2906 25.6461 31.8185 25.1215 31.8185 24.474C31.8166 24.1635 31.6919 23.8663 31.4717 23.6474C31.2515 23.4284 30.9537 23.3054 30.6431 23.3053ZM10.1502 8.40039L29.2685 8.46348L27.3959 18.949L12.3781 18.9756L10.1502 8.40039ZM13.3676 28.7439C12.7898 28.7439 12.3183 28.2725 12.3183 27.6947C12.3183 27.117 12.7898 26.6455 13.3676 26.6455C13.9453 26.6455 14.4168 27.117 14.4168 27.6947C14.4168 27.973 14.3062 28.2399 14.1095 28.4366C13.9127 28.6334 13.6458 28.7439 13.3676 28.7439ZM24.1619 28.7439C23.5842 28.7439 23.1127 28.2725 23.1127 27.6947C23.1127 27.117 23.5842 26.6455 24.1619 26.6455C24.7396 26.6455 25.2111 27.117 25.2111 27.6947C25.2111 27.973 25.1006 28.2399 24.9038 28.4366C24.707 28.6334 24.4402 28.7439 24.1619 28.7439Z" fill="#B1B1B1"/>
</svg>
