<svg width="25" height="25" viewBox="0 0 25 25" fill="none" xmlns="http://www.w3.org/2000/svg">
<path d="M16.5 17.5V14.5H9.5V10.5H16.5V7.5L21.5 12.5L16.5 17.5ZM14.5 2.5C15.0304 2.5 15.5391 2.71071 15.9142 3.08579C16.2893 3.46086 16.5 3.96957 16.5 4.5V6.5H14.5V4.5H5.5V20.5H14.5V18.5H16.5V20.5C16.5 21.0304 16.2893 21.5391 15.9142 21.9142C15.5391 22.2893 15.0304 22.5 14.5 22.5H5.5C4.96957 22.5 4.46086 22.2893 4.08579 21.9142C3.71071 21.5391 3.5 21.0304 3.5 20.5V4.5C3.5 3.96957 3.71071 3.46086 4.08579 3.08579C4.46086 2.71071 4.96957 2.5 5.5 2.5H14.5Z" fill="#B0B0B0"/>
</svg>
