<svg width="25" height="25" viewBox="0 0 25 25" fill="none" xmlns="http://www.w3.org/2000/svg">
<path d="M11.529 3.0401C11.826 2.87514 12.1602 2.78857 12.5 2.78857C12.8398 2.78857 13.174 2.87514 13.471 3.0401L20.986 7.2141C21.1418 7.30074 21.2716 7.42746 21.362 7.58113C21.4524 7.73479 21.5 7.90983 21.5 8.0881V16.3231C21.4999 16.6797 21.4045 17.0299 21.2235 17.3372C21.0426 17.6446 20.7828 17.8979 20.471 18.0711L13.471 21.9611C13.174 22.1261 12.8398 22.2126 12.5 22.2126C12.1602 22.2126 11.826 22.1261 11.529 21.9611L4.529 18.0711C4.21736 17.898 3.95763 17.6448 3.77671 17.3377C3.5958 17.0305 3.50026 16.6806 3.5 16.3241V8.0881C3.49999 7.90983 3.54764 7.73479 3.63802 7.58113C3.72839 7.42746 3.8582 7.30074 4.014 7.2141L11.53 3.0401H11.529Z" stroke="#B0B0B0" stroke-width="2" stroke-linecap="round" stroke-linejoin="round"/>
<path d="M12.5 12.5V22M3.5 7.5L12.5 12.5L3.5 7.5ZM12.5 12.5L21.5 7.5L12.5 12.5Z" stroke="#B0B0B0" stroke-width="2" stroke-linejoin="round"/>
<path d="M8 10L17 5" stroke="#B0B0B0" stroke-width="2" stroke-linecap="round" stroke-linejoin="round"/>
<path d="M6.5 12.8281L9.5 14.5001" stroke="#B0B0B0" stroke-width="2" stroke-linecap="round" stroke-linejoin="round"/>
</svg>
