<svg width="33" height="32" viewBox="0 0 33 32" fill="none" xmlns="http://www.w3.org/2000/svg">
<path d="M4.5 16H16.5V18H4.5V16Z" fill="#B0B0B0"/>
<path d="M2.5 11H12.5V13H2.5V11Z" fill="#B0B0B0"/>
<path d="M30.419 16.606L27.419 9.606C27.342 9.42608 27.2138 9.27273 27.0505 9.165C26.8871 9.05727 26.6957 8.99989 26.5 9H23.5V7C23.5 6.73478 23.3946 6.48043 23.2071 6.29289C23.0195 6.10536 22.7652 6 22.5 6H6.49997V8H21.5V20.556C21.0443 20.8206 20.6455 21.1728 20.3266 21.5922C20.0077 22.0117 19.775 22.4902 19.642 23H13.358C13.1146 22.0573 12.5357 21.2358 11.73 20.6894C10.9242 20.143 9.94678 19.9092 8.98097 20.0319C8.01515 20.1546 7.12724 20.6253 6.48365 21.3558C5.84006 22.0863 5.48499 23.0264 5.48499 24C5.48499 24.9736 5.84006 25.9137 6.48365 26.6442C7.12724 27.3747 8.01515 27.8454 8.98097 27.9681C9.94678 28.0908 10.9242 27.857 11.73 27.3106C12.5357 26.7642 13.1146 25.9427 13.358 25H19.642C19.8595 25.8582 20.357 26.6194 21.0557 27.1632C21.7545 27.7069 22.6146 28.0021 23.5 28.0021C24.3853 28.0021 25.2454 27.7069 25.9442 27.1632C26.6429 26.6194 27.1404 25.8582 27.358 25H29.5C29.7652 25 30.0195 24.8946 30.2071 24.7071C30.3946 24.5196 30.5 24.2652 30.5 24V17C30.5 16.8645 30.4725 16.7305 30.419 16.606ZM9.49997 26C9.10441 26 8.71773 25.8827 8.38883 25.6629C8.05993 25.4432 7.80358 25.1308 7.65221 24.7654C7.50083 24.3999 7.46123 23.9978 7.5384 23.6098C7.61557 23.2219 7.80605 22.8655 8.08575 22.5858C8.36546 22.3061 8.72183 22.1156 9.10979 22.0384C9.49775 21.9613 9.89988 22.0009 10.2653 22.1522C10.6308 22.3036 10.9431 22.56 11.1629 22.8889C11.3827 23.2178 11.5 23.6044 11.5 24C11.4994 24.5303 11.2886 25.0387 10.9136 25.4136C10.5386 25.7886 10.0302 25.9995 9.49997 26ZM23.5 11H25.84L27.984 16H23.5V11ZM23.5 26C23.1044 26 22.7177 25.8827 22.3888 25.6629C22.0599 25.4432 21.8036 25.1308 21.6522 24.7654C21.5008 24.3999 21.4612 23.9978 21.5384 23.6098C21.6156 23.2219 21.806 22.8655 22.0858 22.5858C22.3655 22.3061 22.7218 22.1156 23.1098 22.0384C23.4977 21.9613 23.8999 22.0009 24.2653 22.1522C24.6308 22.3036 24.9431 22.56 25.1629 22.8889C25.3827 23.2178 25.5 23.6044 25.5 24C25.4994 24.5303 25.2886 25.0387 24.9136 25.4136C24.5386 25.7886 24.0302 25.9995 23.5 26ZM28.5 23H27.358C27.1377 22.1434 26.6394 21.3842 25.9412 20.8413C25.243 20.2983 24.3844 20.0025 23.5 20V18H28.5V23Z" fill="#B0B0B0"/>
</svg>
