<svg width="35" height="35" viewBox="0 0 35 35" fill="none" xmlns="http://www.w3.org/2000/svg">
<path d="M27.7084 2.9165H7.29171C6.90493 2.9165 6.534 3.07015 6.26051 3.34364C5.98702 3.61713 5.83337 3.98806 5.83337 4.37484V30.6248C5.83337 31.0116 5.98702 31.3825 6.26051 31.656C6.534 31.9295 6.90493 32.0832 7.29171 32.0832H27.7084C28.0951 32.0832 28.4661 31.9295 28.7396 31.656C29.0131 31.3825 29.1667 31.0116 29.1667 30.6248V4.37484C29.1667 3.98806 29.0131 3.61713 28.7396 3.34364C28.4661 3.07015 28.0951 2.9165 27.7084 2.9165V2.9165Z" stroke="#B0B0B0" stroke-width="3" stroke-linecap="round" stroke-linejoin="round"/>
<path d="M12.3959 21.875H22.6042" stroke="#B0B0B0" stroke-width="3" stroke-linecap="round" stroke-linejoin="round"/>
<path d="M12.3959 26.25H17.5" stroke="#B0B0B0" stroke-width="3" stroke-linecap="round" stroke-linejoin="round"/>
<path d="M21.875 9.479L16.0417 15.3123L13.125 12.3957" stroke="#B0B0B0" stroke-width="3" stroke-linecap="round" stroke-linejoin="round"/>
</svg>
