<svg width="28" height="28" viewBox="0 0 28 28" fill="none" xmlns="http://www.w3.org/2000/svg">
<path d="M18.375 14H20.125V15.75H18.375V14Z" fill="#B0B0B0"/>
<path d="M7.875 14H14.875V15.75H7.875V14Z" fill="#B0B0B0"/>
<path d="M18.375 10.5H20.125V12.25H18.375V10.5Z" fill="#B0B0B0"/>
<path d="M7.875 10.5H14.875V12.25H7.875V10.5Z" fill="#B0B0B0"/>
<path d="M7.875 7H20.125V8.75H7.875V7Z" fill="#B0B0B0"/>
<path d="M21.875 1.75H6.125C5.66101 1.75046 5.21616 1.93499 4.88807 2.26307C4.55999 2.59116 4.37546 3.03601 4.375 3.5V25.375C4.375 25.6071 4.46719 25.8296 4.63128 25.9937C4.79538 26.1578 5.01794 26.25 5.25 26.25H6.125C6.26085 26.2501 6.39485 26.2185 6.51636 26.1577C6.63787 26.097 6.74354 26.0087 6.825 25.9L8.75 23.3336L10.675 25.9C10.76 26.0035 10.8668 26.0869 10.9878 26.1441C11.1089 26.2013 11.2411 26.231 11.375 26.231C11.5089 26.231 11.6411 26.2013 11.7622 26.1441C11.8832 26.0869 11.99 26.0035 12.075 25.9L14 23.3336L15.925 25.9C16.01 26.0035 16.1168 26.0869 16.2378 26.1441C16.3589 26.2013 16.4911 26.231 16.625 26.231C16.7589 26.231 16.8911 26.2013 17.0122 26.1441C17.1332 26.0869 17.24 26.0035 17.325 25.9L19.25 23.3336L21.175 25.9C21.2565 26.0087 21.3622 26.0969 21.4837 26.1576C21.6052 26.2184 21.7392 26.25 21.875 26.25H22.75C22.9821 26.25 23.2046 26.1578 23.3687 25.9937C23.5328 25.8296 23.625 25.6071 23.625 25.375V3.5C23.6245 3.03601 23.44 2.59116 23.1119 2.26307C22.7838 1.93499 22.339 1.75046 21.875 1.75ZM21.875 23.9164L19.95 21.35C19.865 21.2465 19.7582 21.1631 19.6372 21.1059C19.5161 21.0487 19.3839 21.019 19.25 21.019C19.1161 21.019 18.9839 21.0487 18.8628 21.1059C18.7418 21.1631 18.635 21.2465 18.55 21.35L16.625 23.9164L14.7 21.35C14.615 21.2465 14.5082 21.1631 14.3872 21.1059C14.2661 21.0487 14.1339 21.019 14 21.019C13.8661 21.019 13.7339 21.0487 13.6128 21.1059C13.4918 21.1631 13.385 21.2465 13.3 21.35L11.375 23.9164L9.45 21.35C9.36505 21.2465 9.2582 21.1631 9.13716 21.1059C9.01612 21.0487 8.88389 21.019 8.75 21.019C8.61611 21.019 8.48388 21.0487 8.36284 21.1059C8.2418 21.1631 8.13495 21.2465 8.05 21.35L6.125 23.9164V3.5H21.875V23.9164Z" fill="#B0B0B0"/>
</svg>
