<svg width="31" height="30" viewBox="0 0 31 30" fill="none" xmlns="http://www.w3.org/2000/svg">
<path d="M25.5625 3.75H1.1875V22.5H25.5625V3.75ZM23.6875 20.625H3.0625V5.625H23.6875V20.625Z" fill="#B0B0B0"/>
<path d="M27.4375 8.4375V24.375H5.875V26.25H29.3125V8.4375H27.4375Z" fill="#B0B0B0"/>
<path d="M13.375 17.7223C15.7012 17.7223 17.5938 15.6635 17.5938 13.1329C17.5938 10.6023 15.7012 8.54346 13.375 8.54346C11.0488 8.54346 9.15625 10.6022 9.15625 13.1329C9.15625 15.6635 11.0488 17.7223 13.375 17.7223ZM13.375 10.4185C14.6673 10.4185 15.7188 11.6362 15.7188 13.1329C15.7188 14.6296 14.6673 15.8473 13.375 15.8473C12.0827 15.8473 11.0312 14.6296 11.0312 13.1329C11.0312 11.6362 12.0827 10.4185 13.375 10.4185Z" fill="#B0B0B0"/>
<path d="M4.9375 7.96875H6.8125V18.2812H4.9375V7.96875Z" fill="#B0B0B0"/>
<path d="M19.9375 7.96875H21.8125V18.2812H19.9375V7.96875Z" fill="#B0B0B0"/>
</svg>
