<svg width="19" height="21" viewBox="0 0 19 21" fill="none" xmlns="http://www.w3.org/2000/svg">
<g clip-path="url(#clip0)">
<path d="M13.1 12.375C11.9469 12.375 11.3924 13 9.5 13C7.60759 13 7.05714 12.375 5.9 12.375C2.91875 12.375 0.5 14.7266 0.5 17.625V18.625C0.5 19.6602 1.36384 20.5 2.42857 20.5H16.5714C17.6362 20.5 18.5 19.6602 18.5 18.625V17.625C18.5 14.7266 16.0813 12.375 13.1 12.375ZM16.5714 18.625H2.42857V17.625C2.42857 15.7656 3.9875 14.25 5.9 14.25C6.48661 14.25 7.43884 14.875 9.5 14.875C11.5772 14.875 12.5094 14.25 13.1 14.25C15.0125 14.25 16.5714 15.7656 16.5714 17.625V18.625ZM9.5 11.75C12.6942 11.75 15.2857 9.23047 15.2857 6.125C15.2857 3.01953 12.6942 0.5 9.5 0.5C6.3058 0.5 3.71429 3.01953 3.71429 6.125C3.71429 9.23047 6.3058 11.75 9.5 11.75ZM9.5 2.375C11.6254 2.375 13.3571 4.05859 13.3571 6.125C13.3571 8.19141 11.6254 9.875 9.5 9.875C7.37455 9.875 5.64286 8.19141 5.64286 6.125C5.64286 4.05859 7.37455 2.375 9.5 2.375Z" fill="#B0B0B0"/>
</g>
<defs>
<clipPath id="clip0">
<rect width="18" height="20" fill="white" transform="translate(0.5 0.5)"/>
</clipPath>
</defs>
</svg>
