<svg width="20" height="20" viewBox="0 0 20 20" fill="none" xmlns="http://www.w3.org/2000/svg">
<path d="M3.74978 18.4375C3.74791 18.6839 3.84382 18.9209 4.01649 19.0967C4.18915 19.2724 4.42447 19.3725 4.67084 19.375H15.3287C15.5751 19.3725 15.8104 19.2724 15.9831 19.0967C16.1557 18.9209 16.2517 18.6839 16.2498 18.4375V5.9375H3.74978V18.4375ZM4.99978 7.1875H14.9998V18.125H4.99978V7.1875Z" fill="#BA825E"/>
<path d="M6.5625 8.4375H7.8125V16.25H6.5625V8.4375Z" fill="#BA825E"/>
<path d="M9.375 8.4375H10.625V16.25H9.375V8.4375Z" fill="#BA825E"/>
<path d="M12.1875 8.4375H13.4375V16.25H12.1875V8.4375Z" fill="#BA825E"/>
<path d="M12.8125 3.4375V1.5625C12.8125 1.0368 12.4419 0.625 11.9688 0.625H8.03125C7.55813 0.625 7.1875 1.0368 7.1875 1.5625V3.4375H2.5V4.6875H17.5V3.4375H12.8125ZM8.4375 1.875H11.5625V3.4375H8.4375V1.875Z" fill="#BA825E"/>
</svg>
